<?xml version="1.0" encoding="iso-8859-1"?>
<!-- Uploaded to: SVG Repo, www.svgrepo.com, Generator: SVG Repo Mixer Tools -->
<svg height="800px" width="800px" version="1.1" id="Layer_1" xmlns="http://www.w3.org/2000/svg" xmlns:xlink="http://www.w3.org/1999/xlink" 
	 viewBox="0 0 512 512" xml:space="preserve">
<path style="fill:#FF9D3B;" d="M475.313,36.683L475.313,36.683c-34.979-34.979-91.691-34.979-126.67,0l5.884,2.632
	c-64.348-20.593-143.25,15.019-186.387,88.27c-5.856,9.944-10.786,20.129-14.81,30.42l4.016,0.013
	c-35.569,10.057-68.143,34.117-89.063,69.64c-20.117,34.162-25.742,72.609-18.623,107.51l-12.98,13.479
	c-34.979,34.979-34.979,91.691,0,126.67l0,0c34.979,34.979,91.691,34.979,126.67,0l311.964-311.964
	C510.292,128.374,510.292,71.662,475.313,36.683z"/>
<path d="M261.549,181.15c-1.57,0-3.164-0.355-4.664-1.105c-0.353-0.177-0.7-0.375-1.031-0.591
	c-4.769-3.097-6.194-9.458-3.168-14.299c3.02-4.831,9.338-6.343,14.207-3.44c4.675,2.769,6.478,8.723,4.011,13.658
	C269.072,179.033,265.382,181.15,261.549,181.15z"/>
<path d="M180.555,309.71c-0.534,0-1.072-0.041-1.615-0.125c-5.718-0.789-9.669-6.055-8.881-11.773
	c0.789-5.718,6.118-9.704,11.821-8.917c0.059,0.008,0.205,0.029,0.263,0.039c5.703,0.885,9.608,6.226,8.724,11.928
	C190.067,306.021,185.618,309.71,180.555,309.71z"/>
<path d="M482.701,29.295C463.81,10.404,438.693,0,411.978,0c-25.071,0-48.732,9.162-67.162,25.902
	c-26.052-5.503-54.22-3.151-82.258,7.204c-41.952,15.494-78.682,47.165-103.423,89.178c-5.452,9.259-10.237,18.917-14.263,28.751
	c-2.5,0.885-4.986,1.83-7.452,2.848c-32.233,13.322-59.984,37.64-78.142,68.473c-19.735,33.512-27.064,72.09-20.891,109.255
	c-5.347,5.058-8.562,8.886-9.619,10.197c-38.461,39.041-38.294,102.08,0.522,140.898C48.182,501.596,73.299,512,100.014,512
	c26.716,0,51.832-10.404,70.724-29.295L482.703,170.74C521.699,131.744,521.698,68.291,482.701,29.295z M467.925,155.965
	L155.96,467.929c-14.944,14.943-34.812,23.173-55.946,23.173s-41.003-8.23-55.947-23.174c-30.849-30.85-30.849-81.044,0-111.893
	c0.312-0.312,0.591-0.644,0.857-0.983c0.001,0.002,0.003,0.004,0.004,0.007c0.358-0.461,36.64-46.117,106.424-47.265
	c5.769-0.095,10.371-4.849,10.276-10.619c-0.095-5.711-4.754-10.277-10.445-10.277c-0.059,0-0.116,0-0.176,0.001
	c-41.793,0.688-72.988,15.267-93.457,29.296c-2.174-28.553,4.619-57.567,19.736-83.234c32.612-55.38,95.466-81.984,152.853-64.696
	c5.529,1.663,11.354-1.466,13.019-6.991c1.665-5.525-1.465-11.354-6.99-13.018c-20.93-6.305-43.302-7.582-65.263-3.943
	c1.957-3.866,4.035-7.681,6.239-11.424c22.304-37.874,55.209-66.349,92.656-80.178c36.698-13.554,73.357-11.333,103.223,6.255
	c4.971,2.928,11.378,1.271,14.306-3.701c2.928-4.973,1.271-11.378-3.702-14.306c-4.739-2.791-9.617-5.246-14.61-7.388
	c12.684-8.238,27.478-12.671,42.96-12.671c21.134,0,41.003,8.23,55.947,23.174C498.773,74.921,498.773,125.115,467.925,155.965z"/>
<path d="M406.713,79.762c-1.764,0-3.548-0.447-5.178-1.381c-4.792-2.727-6.664-8.759-4.169-13.75
	c2.58-5.161,8.858-7.254,14.018-4.673c0.296,0.148,0.597,0.317,0.878,0.492c4.894,3.058,6.381,9.505,3.323,14.399
	C413.601,78.02,410.196,79.762,406.713,79.762z"/>
</svg>